# Blender 3.4.1
# www.blender.org
mtllib Ramitaexportar.mtl
o Cube.001
v -3.638331 -0.010174 -3.832469
v -3.519180 -0.051116 -4.040524
v -3.309924 0.010174 -3.932747
v -3.429075 0.051116 -3.724692
v -3.917349 3.026488 -4.633368
v -3.917349 3.026488 -4.633368
v -3.917349 3.026488 -4.633368
v -3.917349 3.026488 -4.633368
v -4.048538 2.529857 -5.523672
v -3.816846 2.486249 -5.583482
v -3.747899 2.684896 -5.461228
v -3.979591 2.728504 -5.401418
v -4.019742 2.387402 -5.307487
v -3.786892 2.338321 -5.357804
v -3.720868 2.550779 -5.259506
v -3.953719 2.599861 -5.209189
v -3.982983 4.009670 -4.241661
v -4.209872 4.062006 -4.311964
v -4.123557 4.229280 -4.466006
v -3.896667 4.176945 -4.395703
v -4.006338 4.307672 -3.853091
v -4.233940 4.368411 -3.913660
v -4.148957 4.551419 -4.049478
v -3.921356 4.490680 -3.988909
v -4.268127 4.215158 -5.637060
v -4.044061 4.184301 -5.726517
v -3.954936 4.330387 -5.553670
v -4.179002 4.361243 -5.464213
v -4.504099 5.662031 -6.155649
v -4.284812 5.660270 -6.260864
v -4.186275 5.749049 -6.056979
v -4.405562 5.750810 -5.951764
v -3.973675 2.395444 -4.441723
v -3.909271 2.383224 -4.657867
v -3.675307 2.377353 -4.652246
v -3.739620 2.437053 -4.390271
v -4.003379 2.603767 -4.475070
v -3.946557 2.574307 -4.709727
v -3.712502 2.615916 -4.658275
v -3.769324 2.645377 -4.423618
v -4.033083 2.812090 -4.508418
v -3.976261 2.782630 -4.743074
v -3.742207 2.824239 -4.691622
v -3.799028 2.853700 -4.456966
v -4.034582 2.460714 -5.419195
v -3.802889 2.417107 -5.479005
v -3.733942 2.615753 -5.356751
v -3.965634 2.659361 -5.296941
v -3.965134 2.177226 -4.712151
v -3.731260 2.123873 -4.752361
v -3.983077 2.246200 -4.908030
v -3.749203 2.192847 -4.948241
v -3.685760 2.416086 -4.875444
v -3.919633 2.469440 -4.835234
v -4.001020 2.315174 -5.103909
v -3.767147 2.261820 -5.144120
v -3.703703 2.485060 -5.071324
v -3.937577 2.538414 -5.031114
v -3.670771 0.209145 -3.894206
v -3.551620 0.168203 -4.102262
v -3.342365 0.229494 -3.994484
v -3.461516 0.270436 -3.786429
v -3.703212 0.428465 -3.955943
v -3.584061 0.387523 -4.163999
v -3.374805 0.448813 -4.056221
v -3.493956 0.489755 -3.848166
v -3.735652 0.647785 -4.017680
v -3.616501 0.606842 -4.225736
v -3.407245 0.668133 -4.117958
v -3.526397 0.709075 -3.909903
v -3.768093 0.867104 -4.079417
v -3.648942 0.826162 -4.287473
v -3.439686 0.887452 -4.179695
v -3.558837 0.928395 -3.971640
v -3.800533 1.086424 -4.141154
v -3.681382 1.045482 -4.349210
v -3.472126 1.106772 -4.241432
v -3.591278 1.147714 -4.033377
v -3.832973 1.305743 -4.202891
v -3.713822 1.264801 -4.410946
v -3.504567 1.326092 -4.303169
v -3.623718 1.367034 -4.095114
v -3.865414 1.525063 -4.264628
v -3.746263 1.484121 -4.472683
v -3.537007 1.545411 -4.364906
v -3.656158 1.586353 -4.156851
v -3.897854 1.744382 -4.326365
v -3.778703 1.703440 -4.534420
v -3.569448 1.764731 -4.426643
v -3.688599 1.805673 -4.218588
v -3.930295 1.963702 -4.388102
v -3.811144 1.922760 -4.596158
v -3.601888 1.984050 -4.488380
v -3.721039 2.024992 -4.280324
v -4.091939 3.232184 -4.573174
v -4.037752 3.203241 -4.808517
v -3.803070 3.244293 -4.759531
v -3.857258 3.273236 -4.524188
v -4.122095 3.443935 -4.606160
v -4.067907 3.414992 -4.841503
v -3.833226 3.456043 -4.792516
v -3.887414 3.484987 -4.557173
v -3.953966 3.718052 -4.481452
v -4.179960 3.760960 -4.560483
v -4.096867 3.908633 -4.770052
v -3.865974 3.867676 -4.651836
v -3.969117 3.870631 -4.355289
v -4.195111 3.913539 -4.434320
v -4.107120 4.063162 -4.604704
v -3.881125 4.020255 -4.525672
v -3.990086 4.100958 -4.121457
v -4.217688 4.161697 -4.182025
v -4.132705 4.344705 -4.317844
v -3.905104 4.283966 -4.257275
v -3.998212 4.204315 -3.987274
v -4.225813 4.265055 -4.047843
v -4.140831 4.448062 -4.183661
v -3.913229 4.387323 -4.123092
v -4.183283 3.715144 -4.935049
v -3.955354 3.661211 -5.000625
v -3.873836 3.852749 -4.874814
v -4.204026 3.837351 -5.107657
v -3.976097 3.783418 -5.173233
v -3.894579 3.974955 -5.047422
v -4.122508 4.028888 -4.981846
v -4.224769 3.959557 -5.280266
v -3.996840 3.905624 -5.345841
v -3.915322 4.097161 -5.220030
v -4.143250 4.151094 -5.154455
v -4.245512 4.081764 -5.452875
v -4.017583 4.027831 -5.518450
v -3.936065 4.219368 -5.392639
v -4.163994 4.273301 -5.327063
v -4.303823 4.433945 -5.717692
v -4.084536 4.432185 -5.822907
v -3.985999 4.520962 -5.619022
v -4.205286 4.522722 -5.513807
v -4.337203 4.638626 -5.790686
v -4.117916 4.636866 -5.895901
v -4.019378 4.725644 -5.692015
v -4.238666 4.727404 -5.586800
v -4.370582 4.843307 -5.863678
v -4.151295 4.841546 -5.968893
v -4.052757 4.930325 -5.765008
v -4.272045 4.932085 -5.659793
v -4.403962 5.047987 -5.936670
v -4.184674 5.046227 -6.041886
v -4.086136 5.135006 -5.838001
v -4.305424 5.136766 -5.732786
v -4.437341 5.252668 -6.009663
v -4.218053 5.250909 -6.114879
v -4.119515 5.339688 -5.910994
v -4.338803 5.341447 -5.805778
v -4.470720 5.457349 -6.082656
v -4.251433 5.455590 -6.187871
v -4.152895 5.544368 -5.983986
v -4.372183 5.546128 -5.878771
v -3.917349 3.026488 -4.633368
v -3.917349 3.026488 -4.633368
v -3.917349 3.026488 -4.633368
vn -0.9526 0.1793 0.2459
vn 0.2835 0.8167 0.5026
vn 0.9526 -0.1793 -0.2459
vn -0.2835 -0.8167 -0.5026
vn -0.9521 0.1798 0.2474
vn 0.2829 0.8131 0.5089
vn 0.9523 -0.1808 -0.2457
vn -0.2817 -0.8200 -0.4982
vn -0.2336 0.1211 0.9648
vn 0.9623 0.1711 0.2115
vn 0.2336 -0.1211 -0.9648
vn 0.2102 0.9750 -0.0727
vn -0.9623 -0.1711 -0.2115
vn 0.9649 0.1626 0.2062
vn 0.1286 -0.1105 -0.9855
vn -0.9490 -0.2095 -0.2358
vn -0.1518 0.9310 -0.3320
vn -0.0479 0.6095 0.7913
vn 0.8560 0.0784 0.5110
vn -0.9027 0.3204 -0.2871
vn -0.2593 -0.5261 -0.8099
vn -0.3651 0.1513 0.9186
vn -0.2282 0.1200 0.9662
vn 0.9636 0.1699 0.2065
vn -0.8970 0.4397 -0.0458
vn -0.1107 0.5485 -0.8288
vn 0.8415 0.0392 -0.5389
vn 0.1338 0.3795 -0.9155
vn -0.9636 -0.1699 -0.2065
vn -0.0000 1.0000 -0.0000
vn -0.5175 -0.2091 -0.8298
vn 0.8532 -0.0208 -0.5212
vn 0.9248 0.2129 0.3154
vn 0.2625 -0.5831 -0.7688
vn 0.1410 -0.9530 0.2683
vn -0.9608 -0.2733 -0.0466
vn 0.9943 0.0463 0.0961
vn -0.9505 -0.2964 -0.0931
vn -0.2593 -0.2637 0.9291
vn -0.0451 -0.5276 -0.8483
vn 0.7835 -0.3012 -0.5435
vn -0.2608 -0.9178 -0.2993
vn 0.9725 -0.2009 -0.1175
vn 0.1412 0.9471 0.2881
vn -0.9619 0.2188 0.1639
vn 0.9615 -0.2194 -0.1653
vn 0.2608 0.9178 0.2993
vn -0.9615 0.2194 0.1653
vn -0.2600 -0.9169 -0.3029
vn 0.9612 -0.2203 -0.1662
vn 0.2592 0.9195 0.2957
vn -0.9612 0.2208 0.1651
vn -0.8603 -0.2520 -0.4431
vn 0.4899 -0.1683 -0.8554
vn 0.8603 0.2520 0.4431
vn -0.4899 0.1683 0.8554
vn -0.9649 -0.1688 -0.2014
vn 0.2228 -0.1190 -0.9676
vn 0.9649 0.1688 0.2014
vn -0.2228 0.1190 0.9676
vn -0.3618 -0.6152 0.7005
vn -0.9422 0.1864 -0.2784
vn 0.3989 0.6484 -0.6484
vn 0.9291 -0.1764 0.3249
vn -0.3607 -0.6129 0.7030
vn -0.9287 0.1778 -0.3253
vn 0.3604 0.6176 -0.6991
vn 0.9286 -0.1766 0.3264
vn -0.3479 -0.7551 0.5557
vn -0.9353 0.2501 -0.2505
vn 0.3484 0.7507 -0.5613
vn 0.9353 -0.2514 0.2490
vn -0.3494 -0.7524 0.5584
vn -0.9358 0.2497 -0.2490
vn 0.3494 0.7524 -0.5584
vn 0.9358 -0.2497 0.2490
vn -0.3352 -0.7875 -0.5173
vn 0.9371 -0.2217 -0.2696
vn 0.3709 0.8050 0.4630
vn -0.9422 0.2202 0.2526
vn -0.3351 -0.7875 -0.5173
vn 0.3352 0.7875 0.5173
vn -0.9371 0.2217 0.2696
vn -0.3293 -0.7786 -0.5342
vn 0.9336 -0.2257 -0.2783
vn 0.3222 0.8039 0.4998
vn -0.9342 0.2333 0.2700
vn -0.3950 -0.3815 -0.8357
vn 0.8987 -0.0151 -0.4383
vn 0.3987 0.3427 0.8506
vn -0.8965 0.0056 0.4431
vn -0.4051 -0.3650 -0.8382
vn 0.9016 -0.0072 -0.4326
vn 0.4051 0.3650 0.8382
vn -0.9016 0.0072 0.4326
s 0
usemtl Material.001
f 12//1 9//1 45//1 48//1
f 11//2 12//2 48//2 47//2
f 10//3 11//3 47//3 46//3
f 9//4 10//4 46//4 45//4
f 48//5 45//5 13//5 16//5
f 47//6 48//6 16//6 15//6
f 46//7 47//7 15//7 14//7
f 45//8 46//8 14//8 13//8
f 44//9 41//9 37//9 40//9
f 43//10 44//10 40//10 39//10
f 42//11 43//11 39//11 38//11
f 121//12 105//12 106//12
f 41//13 42//13 38//13 37//13
f 40//9 37//9 33//9 36//9
f 39//14 40//14 36//14 35//14
f 38//15 39//15 35//15 34//15
f 37//16 38//16 34//16 33//16
f 32//17 31//17 30//17 29//17
f 24//18 23//18 22//18 21//18
f 103//19 102//19 106//19
f 34//20 49//20 33//20
f 49//21 50//21 92//21
f 33//22 91//22 94//22 36//22
f 95//23 41//23 44//23 98//23
f 98//24 44//24 43//24 97//24
f 119//25 104//25 105//25
f 12//26 11//26 10//26 9//26
f 96//27 5//27 160//27 42//27
f 42//28 160//28 159//28 43//28
f 96//29 42//29 41//29 95//29
f 160//30 159//30 158//30 5//30
f 43//31 159//31 158//31 97//31
f 120//32 121//32 101//32
f 35//33 36//33 94//33 93//33
f 97//34 158//34 5//34 96//34
f 1//35 2//35 3//35 4//35
f 100//36 99//36 104//36 119//36
f 101//37 121//37 106//37 102//37
f 49//38 92//38 91//38 33//38
f 99//39 102//39 103//39 104//39
f 120//40 101//40 100//40 119//40
f 50//41 35//41 93//41 92//41
f 51//42 52//42 50//42 49//42
f 52//43 53//43 35//43 50//43
f 53//44 54//44 34//44 35//44
f 54//45 51//45 49//45 34//45
f 55//42 56//42 52//42 51//42
f 56//46 57//46 53//46 52//46
f 57//47 58//47 54//47 53//47
f 58//48 55//48 51//48 54//48
f 13//49 14//49 56//49 55//49
f 14//50 15//50 57//50 56//50
f 15//51 16//51 58//51 57//51
f 16//52 13//52 55//52 58//52
f 59//53 60//53 2//53 1//53
f 60//54 61//54 3//54 2//54
f 61//55 62//55 4//55 3//55
f 62//56 59//56 1//56 4//56
f 63//53 64//53 60//53 59//53
f 64//54 65//54 61//54 60//54
f 65//55 66//55 62//55 61//55
f 66//56 63//56 59//56 62//56
f 67//53 68//53 64//53 63//53
f 68//54 69//54 65//54 64//54
f 69//55 70//55 66//55 65//55
f 70//56 67//56 63//56 66//56
f 71//53 72//53 68//53 67//53
f 72//54 73//54 69//54 68//54
f 73//55 74//55 70//55 69//55
f 74//56 71//56 67//56 70//56
f 75//53 76//53 72//53 71//53
f 76//54 77//54 73//54 72//54
f 77//55 78//55 74//55 73//55
f 78//56 75//56 71//56 74//56
f 79//53 80//53 76//53 75//53
f 80//54 81//54 77//54 76//54
f 81//55 82//55 78//55 77//55
f 82//56 79//56 75//56 78//56
f 83//53 84//53 80//53 79//53
f 84//54 85//54 81//54 80//54
f 85//55 86//55 82//55 81//55
f 86//56 83//56 79//56 82//56
f 87//53 88//53 84//53 83//53
f 88//54 89//54 85//54 84//54
f 89//55 90//55 86//55 85//55
f 90//56 87//56 83//56 86//56
f 91//53 92//53 88//53 87//53
f 92//54 93//54 89//54 88//54
f 93//55 94//55 90//55 89//55
f 94//56 91//56 87//56 90//56
f 99//57 100//57 96//57 95//57
f 100//58 101//58 97//58 96//58
f 101//59 102//59 98//59 97//59
f 102//60 99//60 95//60 98//60
f 107//61 108//61 104//61 103//61
f 108//62 109//62 105//62 104//62
f 109//63 110//63 106//63 105//63
f 110//64 107//64 103//64 106//64
f 17//65 18//65 108//65 107//65
f 18//66 19//66 109//66 108//66
f 19//67 20//67 110//67 109//67
f 20//68 17//68 107//68 110//68
f 111//69 112//69 18//69 17//69
f 112//70 113//70 19//70 18//70
f 113//71 114//71 20//71 19//71
f 114//72 111//72 17//72 20//72
f 115//73 116//73 112//73 111//73
f 116//74 117//74 113//74 112//74
f 117//75 118//75 114//75 113//75
f 118//76 115//76 111//76 114//76
f 21//73 22//73 116//73 115//73
f 22//74 23//74 117//74 116//74
f 23//75 24//75 118//75 117//75
f 24//76 21//76 115//76 118//76
f 122//77 123//77 120//77 119//77
f 123//78 124//78 121//78 120//78
f 124//79 125//79 105//79 121//79
f 125//80 122//80 119//80 105//80
f 126//81 127//81 123//81 122//81
f 127//78 128//78 124//78 123//78
f 128//82 129//82 125//82 124//82
f 129//83 126//83 122//83 125//83
f 130//81 131//81 127//81 126//81
f 131//78 132//78 128//78 127//78
f 132//82 133//82 129//82 128//82
f 133//83 130//83 126//83 129//83
f 25//84 26//84 131//84 130//84
f 26//85 27//85 132//85 131//85
f 27//86 28//86 133//86 132//86
f 28//87 25//87 130//87 133//87
f 134//88 135//88 26//88 25//88
f 135//89 136//89 27//89 26//89
f 136//90 137//90 28//90 27//90
f 137//91 134//91 25//91 28//91
f 138//92 139//92 135//92 134//92
f 139//93 140//93 136//93 135//93
f 140//94 141//94 137//94 136//94
f 141//95 138//95 134//95 137//95
f 142//92 143//92 139//92 138//92
f 143//93 144//93 140//93 139//93
f 144//94 145//94 141//94 140//94
f 145//95 142//95 138//95 141//95
f 146//92 147//92 143//92 142//92
f 147//93 148//93 144//93 143//93
f 148//94 149//94 145//94 144//94
f 149//95 146//95 142//95 145//95
f 150//92 151//92 147//92 146//92
f 151//93 152//93 148//93 147//93
f 152//94 153//94 149//94 148//94
f 153//95 150//95 146//95 149//95
f 154//92 155//92 151//92 150//92
f 155//93 156//93 152//93 151//93
f 156//94 157//94 153//94 152//94
f 157//95 154//95 150//95 153//95
f 29//92 30//92 155//92 154//92
f 30//93 31//93 156//93 155//93
f 31//94 32//94 157//94 156//94
f 32//95 29//95 154//95 157//95
